<svg width="40" height="40" viewBox="0 0 40 40" fill="none" xmlns="http://www.w3.org/2000/svg">
<circle cx="20" cy="20" r="20" fill="#F2F2F2"/>
<g clip-path="url(#clip0_1925_29884)">
<path fill-rule="evenodd" clip-rule="evenodd" d="M30.0017 20.2278C30.0026 19.5417 29.9405 18.8569 29.8162 18.1816H20.2031V22.0498H25.6951C25.5811 22.661 25.3419 23.2432 24.992 23.7613C24.642 24.2794 24.1886 24.7227 23.659 25.0644V27.574H26.9563C28.8856 25.8331 29.9988 23.2688 29.9988 20.2259L30.0017 20.2278Z" fill="#3E82F1"/>
<path fill-rule="evenodd" clip-rule="evenodd" d="M20.2049 29.9988C22.96 29.9988 25.27 29.1038 26.9581 27.5767L23.6608 25.0671C22.7466 25.6672 21.5777 26.0223 20.2049 26.0223C17.5469 26.0223 15.2974 24.2626 14.4957 21.8989H11.0859V24.4905C11.9353 26.1469 13.238 27.5393 14.8483 28.512C16.4586 29.4847 18.3132 29.9995 20.2049 29.9988Z" fill="#32A753"/>
<path fill-rule="evenodd" clip-rule="evenodd" d="M14.495 21.8988C14.0682 20.6669 14.0682 19.3313 14.495 18.0994V15.5078H11.0853C10.3716 16.9017 10 18.4396 10 19.9991C10 21.5586 10.3716 23.0965 11.0853 24.4904L14.495 21.8988Z" fill="#F9BB00"/>
<path fill-rule="evenodd" clip-rule="evenodd" d="M20.203 13.9764C21.7017 13.9764 23.0465 14.4814 24.104 15.4724L27.0302 12.6039C25.2633 10.9901 22.9533 10 20.2049 10C18.3132 9.99931 16.4586 10.5141 14.8483 11.4868C13.238 12.4595 11.9353 13.8518 11.0859 15.5082L14.4957 18.0999C15.2974 15.7362 17.5469 13.9764 20.2049 13.9764H20.203Z" fill="#E74133"/>
</g>
<defs>
<clipPath id="clip0_1925_29884">
<rect width="20" height="20" fill="white" transform="translate(10 10)"/>
</clipPath>
</defs>
</svg>
