<svg width="40" height="40" viewBox="0 0 40 40" fill="none" xmlns="http://www.w3.org/2000/svg">
<circle cx="20" cy="20" r="20" fill="#FAE300"/>
<g clip-path="url(#clip0_151_28283)">
<path d="M17.0396 19.257H18.3067L17.6731 17.3062L17.0396 19.257Z" fill="#331D1E"/>
<path d="M20 9C13.9246 9 9 13.2077 9 18.3988C9 21.7548 11.0593 24.7028 14.1562 26.3625C13.9881 26.9918 13.0732 30.4132 13.0372 30.6825C13.0372 30.6825 13.015 30.8842 13.1356 30.961C13.1759 30.9831 13.22 30.996 13.2651 30.9989C13.3102 31.0019 13.3554 30.9948 13.3979 30.9782C13.7448 30.9255 17.4171 28.1345 18.0517 27.6543C18.6973 27.7514 19.3483 27.7993 20 27.7975C26.0754 27.7975 31 23.5899 31 18.3988C31 13.2077 26.0754 9 20 9ZM14.5561 16.9397C14.5423 18.2693 14.5666 19.6676 14.5465 20.9766C14.5402 21.3949 14.3181 21.5199 14.0177 21.6391C13.9838 21.6521 13.9472 21.6548 13.9119 21.6471C13.5682 21.5737 13.2942 21.4408 13.2858 20.9777C13.2614 19.6699 13.2932 18.2693 13.2762 16.9397C12.9854 16.9271 12.5708 16.9523 12.3011 16.9397C11.9266 16.9133 11.6664 16.6554 11.6823 16.2714C11.6982 15.8875 11.8875 15.6112 12.3074 15.6044C13.2995 15.5883 14.5286 15.5883 15.5207 15.6044C15.9438 15.6112 16.132 15.8886 16.1447 16.2714C16.1574 16.6543 15.9014 16.9133 15.5281 16.9397C15.2615 16.9523 14.848 16.9271 14.5561 16.9397ZM19.8868 21.576C19.7599 21.6386 19.6222 21.671 19.4828 21.6711C19.2184 21.6711 19.0163 21.5565 18.9539 21.3674L18.6366 20.4757H16.7053L16.388 21.3674C16.3266 21.5542 16.1246 21.6711 15.8591 21.6711C15.7201 21.6711 15.5826 21.6387 15.4562 21.576C15.2806 21.4889 15.1124 21.2482 15.3049 20.5995L16.8269 16.2691C16.8908 16.0784 17.0051 15.9123 17.1556 15.7916C17.3061 15.6709 17.4861 15.601 17.6731 15.5906C17.8599 15.6021 18.0396 15.6726 18.1899 15.7934C18.3403 15.9141 18.4547 16.0799 18.5192 16.2703L20.036 20.5983C20.2295 21.2482 20.0613 21.4935 19.8868 21.576ZM23.0938 21.576H21.0577C20.9 21.5794 20.7475 21.515 20.6335 21.3968C20.5196 21.2787 20.4534 21.1165 20.4495 20.9456V16.2783C20.4563 16.097 20.5275 15.9256 20.6482 15.7999C20.769 15.6743 20.9299 15.6041 21.0974 15.6041C21.2648 15.6041 21.4257 15.6743 21.5465 15.7999C21.6672 15.9256 21.7384 16.097 21.7452 16.2783V20.3186H23.0938C23.1731 20.3135 23.2526 20.3259 23.3273 20.3552C23.4021 20.3846 23.4705 20.4302 23.5283 20.4892C23.5862 20.5483 23.6323 20.6195 23.6639 20.6986C23.6954 20.7777 23.7116 20.8629 23.7116 20.949C23.7116 21.0352 23.6954 21.1204 23.6639 21.1995C23.6323 21.2786 23.5862 21.3498 23.5283 21.4089C23.4705 21.4679 23.4021 21.5135 23.3273 21.5428C23.2526 21.5722 23.1731 21.5846 23.0938 21.5795V21.576ZM28.0649 21.0579C28.0484 21.1936 27.9949 21.3208 27.9113 21.4234C27.8277 21.5259 27.7178 21.5991 27.5956 21.6336C27.4734 21.668 27.3444 21.6622 27.2253 21.6168C27.1062 21.5715 27.0023 21.4886 26.9268 21.3789L25.4387 19.2435L25.2187 19.4819V20.9823C25.2187 21.1647 25.1518 21.3396 25.0328 21.4686C24.9138 21.5975 24.7523 21.67 24.584 21.67C24.4157 21.67 24.2543 21.5975 24.1353 21.4686C24.0163 21.3396 23.9494 21.1647 23.9494 20.9823V16.2829C23.9494 16.1005 24.0163 15.9256 24.1353 15.7966C24.2543 15.6676 24.4157 15.5952 24.584 15.5952C24.7523 15.5952 24.9138 15.6676 25.0328 15.7966C25.1518 15.9256 25.2187 16.1005 25.2187 16.2829V17.7569L26.9892 15.8382C27.0356 15.7885 27.0906 15.7494 27.1511 15.723C27.2115 15.6966 27.2763 15.6836 27.3414 15.6846C27.4999 15.6891 27.6513 15.7569 27.7664 15.8749C27.8816 15.993 27.9525 16.153 27.9655 16.3242C27.9712 16.4006 27.9618 16.4774 27.9379 16.5496C27.914 16.6217 27.8762 16.6875 27.8269 16.7425L26.3779 18.3094L27.9401 20.5525C28.0412 20.698 28.085 20.881 28.0617 21.0614L28.0649 21.0579Z" fill="#331D1E"/>
</g>
<defs>
<clipPath id="clip0_151_28283">
<rect width="22" height="22" fill="white" transform="translate(9 9)"/>
</clipPath>
</defs>
</svg>
