<svg width="170" height="45" viewBox="0 0 170 45" fill="none" xmlns="http://www.w3.org/2000/svg">
<g clip-path="url(#clip0_273_35873)">
<path d="M0 44.43V14.7H9.74464V18.45C10.6857 17.055 11.7786 15.975 13.0384 15.24C14.283 14.505 15.7705 14.13 17.4705 14.13C20.9464 14.13 23.2687 15.795 24.4375 19.125C25.4545 17.505 26.6839 16.26 28.1411 15.405C29.5982 14.55 31.1312 14.13 32.7705 14.13C35.275 14.13 37.2027 15 38.5687 16.74C39.9348 18.48 40.6027 21.015 40.6027 24.345V44.43H30.6455V27.57C30.6455 26.43 30.433 25.56 29.9929 24.93C29.5527 24.3 28.9607 24 28.2018 24C27.7009 24 27.1696 24.15 26.6536 24.45C26.1223 24.75 25.667 25.23 25.2723 25.875V44.43H15.3759V27.57C15.3759 26.43 15.1634 25.56 14.7536 24.93C14.3286 24.3 13.7214 24 12.9321 24C11.7634 24 10.792 24.63 9.9875 25.875V44.43H0Z" fill="#1B92FF"/>
<path d="M58.6501 45C56.5099 45 54.5823 44.655 52.8823 43.95C51.1823 43.245 49.7251 42.24 48.526 40.92C47.3269 39.6 46.401 37.995 45.7483 36.09C45.0956 34.2 44.7617 32.04 44.7617 29.625C44.7617 27.21 45.0805 25.035 45.7483 23.1C46.401 21.165 47.3421 19.545 48.5564 18.225C49.7706 16.905 51.243 15.885 52.9581 15.195C54.6733 14.49 56.6314 14.145 58.8019 14.145C60.9724 14.145 62.8698 14.475 64.5698 15.135C66.2698 15.795 67.7269 16.77 68.926 18.06C70.1251 19.35 71.051 20.91 71.7037 22.74C72.3564 24.57 72.6751 26.67 72.6751 29.01C72.6751 31.5 72.3564 33.75 71.7037 35.73C71.051 37.71 70.1099 39.405 68.8956 40.785C67.6814 42.165 66.209 43.215 64.4939 43.935C62.7635 44.655 60.8206 45.015 58.6501 45.015V45ZM58.6956 36.435C61.1242 36.435 62.3385 34.125 62.3385 29.505C62.3385 24.885 61.1546 22.695 58.8019 22.695C56.4492 22.695 55.159 25.005 55.159 29.625C55.159 34.245 56.343 36.435 58.6956 36.435Z" fill="#1B92FF"/>
<path d="M82.4198 44.43L73.9805 14.7H84.2564L88.7644 34.3349L93.4394 14.7H103.67L95.2305 44.43H82.3894H82.4198Z" fill="#1B92FF"/>
<path d="M120.167 45C115.264 45 111.515 43.725 108.904 41.175C106.294 38.625 104.988 34.965 104.988 30.195C104.988 27.735 105.307 25.515 105.975 23.535C106.628 21.555 107.569 19.86 108.798 18.45C110.028 17.055 111.515 15.975 113.261 15.24C115.006 14.505 116.964 14.13 119.135 14.13C121.093 14.13 122.838 14.46 124.356 15.12C125.874 15.78 127.164 16.68 128.212 17.82C129.259 18.96 130.063 20.31 130.61 21.9C131.156 23.49 131.46 25.23 131.536 27.12C131.566 27.945 131.581 28.83 131.566 29.76C131.551 30.69 131.505 31.455 131.429 32.055H115.386C115.386 33.915 115.962 35.235 117.101 36.06C118.239 36.87 119.954 37.275 122.246 37.275C123.233 37.275 124.28 37.185 125.403 36.99C126.527 36.795 127.695 36.48 128.879 36.03L130.564 43.29C129.289 43.785 127.847 44.19 126.208 44.505C124.569 44.82 122.565 44.985 120.167 44.985V45ZM121.533 26.61C121.533 24.915 121.29 23.565 120.82 22.575C120.349 21.585 119.605 21.105 118.588 21.105C117.571 21.105 116.752 21.6 116.22 22.605C115.689 23.61 115.431 24.945 115.431 26.61H121.518H121.533Z" fill="#1B92FF"/>
<path d="M140.844 11.685C139.144 11.685 137.763 11.16 136.715 10.095C135.668 9.02999 135.137 7.61999 135.137 5.83499C135.137 4.04999 135.668 2.59499 136.715 1.54499C137.763 0.509985 139.144 -0.0150146 140.844 -0.0150146C142.544 -0.0150146 143.925 0.509985 144.972 1.54499C146.02 2.57999 146.551 4.01999 146.551 5.83499C146.551 7.64999 146.02 9.02999 144.972 10.095C143.925 11.16 142.544 11.685 140.844 11.685ZM135.789 44.43V14.7H145.914V44.43H135.789Z" fill="#1B92FF"/>
<path d="M162.988 22.4099V32.5649C162.988 33.6599 163.17 34.4999 163.534 35.0549C163.898 35.6249 164.536 35.9099 165.431 35.9099C165.932 35.9099 166.479 35.8499 167.04 35.7149C167.602 35.5799 168.088 35.4149 168.482 35.2349L170 42.9599C168.801 43.6349 167.526 44.145 166.19 44.4899C164.855 44.8349 163.58 45 162.381 45C160.999 45 159.74 44.8349 158.601 44.52C157.463 44.2049 156.476 43.6649 155.641 42.8999C154.806 42.1349 154.169 41.145 153.714 39.915C153.258 38.6849 153.031 37.1549 153.031 35.3399V22.3949H149.555V14.67H153.031V9.44995L162.988 7.57495V14.67H169.408V22.3949H162.988V22.4099Z" fill="#1B92FF"/>
</g>
<defs>
<clipPath id="clip0_273_35873">
<rect width="170" height="45" fill="white"/>
</clipPath>
</defs>
</svg>
