<svg width="120" height="120" viewBox="0 0 120 120" fill="none" xmlns="http://www.w3.org/2000/svg">
<mask id="mask0_273_40350" style="mask-type:luminance" maskUnits="userSpaceOnUse" x="0" y="0" width="120" height="120">
<path d="M120 0H0V120H120V0Z" fill="white"/>
</mask>
<g mask="url(#mask0_273_40350)">
<path d="M60 120C93.1371 120 120 93.1371 120 60C120 26.8629 93.1371 0 60 0C26.8629 0 0 26.8629 0 60C0 93.1371 26.8629 120 60 120Z" fill="#E9F4FF"/>
<path d="M59.9974 56.6667C67.3612 56.6667 73.3307 50.6971 73.3307 43.3333C73.3307 35.9695 67.3612 30 59.9974 30C52.6336 30 46.6641 35.9695 46.6641 43.3333C46.6641 50.6971 52.6336 56.6667 59.9974 56.6667Z" fill="#242945"/>
<path d="M30 83.3398C30 72.2942 38.9543 63.3398 50 63.3398H70C81.0457 63.3398 90 72.2942 90 83.3398C90 87.0218 87.0153 90.0065 83.3333 90.0065H36.6667C32.9848 90.0065 30 87.0218 30 83.3398Z" fill="#242945"/>
</g>
</svg>
