<svg width="54" height="54" viewBox="0 0 54 54" fill="none" xmlns="http://www.w3.org/2000/svg">
<circle cx="27" cy="27" r="27" fill="#F2F2F2"/>
<g clip-path="url(#clip0_1925_23419)">
<path fill-rule="evenodd" clip-rule="evenodd" d="M36.8757 27.1026C36.8766 26.4165 36.8145 25.7317 36.6902 25.0564H27.0771V28.9245H32.5691C32.4551 29.5357 32.2159 30.118 31.866 30.6361C31.5161 31.1542 31.0626 31.5975 30.533 31.9391V34.4488H33.8303C35.7597 32.7079 36.8729 30.1436 36.8729 27.1007L36.8757 27.1026Z" fill="#3E82F1"/>
<path fill-rule="evenodd" clip-rule="evenodd" d="M27.0789 36.8737C29.834 36.8737 32.1441 35.9788 33.8321 34.4517L30.5348 31.942C29.6206 32.5421 28.4517 32.8973 27.0789 32.8973C24.4209 32.8973 22.1715 31.1375 21.3697 28.7739H17.96V31.3655C18.8094 33.0219 20.112 34.4142 21.7223 35.3869C23.3327 36.3596 25.1873 36.8744 27.0789 36.8737Z" fill="#32A753"/>
<path fill-rule="evenodd" clip-rule="evenodd" d="M21.37 28.7738C20.9432 27.5419 20.9432 26.2063 21.37 24.9744V22.3828H17.9603C17.2466 23.7767 16.875 25.3146 16.875 26.8741C16.875 28.4336 17.2466 29.9715 17.9603 31.3654L21.37 28.7738Z" fill="#F9BB00"/>
<path fill-rule="evenodd" clip-rule="evenodd" d="M27.079 20.8514C28.5776 20.8514 29.9225 21.3564 30.9799 22.3474L33.9062 19.4789C32.1393 17.8651 29.8293 16.875 27.0809 16.875C25.1892 16.8743 23.3346 17.3891 21.7243 18.3618C20.1139 19.3345 18.8113 20.7268 17.9619 22.3832L21.3717 24.9749C22.1734 22.6112 24.4229 20.8514 27.0809 20.8514H27.079Z" fill="#E74133"/>
</g>
<defs>
<clipPath id="clip0_1925_23419">
<rect width="20" height="20" fill="white" transform="translate(16.875 16.875)"/>
</clipPath>
</defs>
</svg>
