<svg width="170" height="45" viewBox="0 0 170 45" fill="none" xmlns="http://www.w3.org/2000/svg">
<g clip-path="url(#clip0_50_5812)">
<path d="M0 44.43V14.7H9.74464V18.45C10.6857 17.055 11.7786 15.975 13.0384 15.24C14.283 14.505 15.7705 14.13 17.4705 14.13C20.9464 14.13 23.2687 15.795 24.4375 19.125C25.4545 17.505 26.6839 16.26 28.1411 15.405C29.5982 14.55 31.1312 14.13 32.7705 14.13C35.275 14.13 37.2027 15 38.5687 16.74C39.9348 18.48 40.6027 21.015 40.6027 24.345V44.43H30.6455V27.57C30.6455 26.43 30.433 25.56 29.9929 24.93C29.5527 24.3 28.9607 24 28.2018 24C27.7009 24 27.1696 24.15 26.6536 24.45C26.1223 24.75 25.667 25.23 25.2723 25.875V44.43H15.3759V27.57C15.3759 26.43 15.1634 25.56 14.7536 24.93C14.3286 24.3 13.7214 24 12.9321 24C11.7634 24 10.792 24.63 9.9875 25.875V44.43H0Z" fill="#1B92FF"/>
<path d="M58.6501 45C56.5099 45 54.5823 44.655 52.8823 43.95C51.1823 43.245 49.7251 42.24 48.526 40.92C47.3269 39.6 46.401 37.995 45.7483 36.09C45.0956 34.2 44.7617 32.04 44.7617 29.625C44.7617 27.21 45.0805 25.035 45.7483 23.1C46.401 21.165 47.3421 19.545 48.5564 18.225C49.7706 16.905 51.243 15.885 52.9581 15.195C54.6733 14.49 56.6314 14.145 58.8019 14.145C60.9724 14.145 62.8698 14.475 64.5698 15.135C66.2698 15.795 67.7269 16.77 68.926 18.06C70.1251 19.35 71.051 20.91 71.7037 22.74C72.3564 24.57 72.6751 26.67 72.6751 29.01C72.6751 31.5 72.3564 33.75 71.7037 35.73C71.051 37.71 70.1099 39.405 68.8956 40.785C67.6814 42.165 66.209 43.215 64.4939 43.935C62.7635 44.655 60.8206 45.015 58.6501 45.015V45ZM58.6956 36.435C61.1242 36.435 62.3385 34.125 62.3385 29.505C62.3385 24.885 61.1546 22.695 58.8019 22.695C56.4492 22.695 55.159 25.005 55.159 29.625C55.159 34.245 56.343 36.435 58.6956 36.435Z" fill="#1B92FF"/>
<path d="M82.4198 44.43L73.9805 14.7H84.2564L88.7644 34.335L93.4394 14.7H103.67L95.2305 44.43H82.3894H82.4198Z" fill="#1B92FF"/>
<path d="M120.169 45C115.266 45 111.517 43.725 108.906 41.175C106.296 38.625 104.99 34.965 104.99 30.195C104.99 27.735 105.309 25.515 105.977 23.535C106.63 21.555 107.571 19.86 108.8 18.45C110.03 17.055 111.517 15.975 113.263 15.24C115.008 14.505 116.966 14.13 119.137 14.13C121.095 14.13 122.84 14.46 124.358 15.12C125.876 15.78 127.166 16.68 128.213 17.82C129.261 18.96 130.065 20.31 130.612 21.9C131.158 23.49 131.462 25.23 131.538 27.12C131.568 27.945 131.583 28.83 131.568 29.76C131.553 30.69 131.507 31.455 131.431 32.055H115.388C115.388 33.915 115.964 35.235 117.103 36.06C118.241 36.87 119.956 37.275 122.248 37.275C123.235 37.275 124.282 37.185 125.405 36.99C126.529 36.795 127.697 36.48 128.881 36.03L130.566 43.29C129.291 43.785 127.849 44.19 126.21 44.505C124.571 44.82 122.567 44.985 120.169 44.985V45ZM121.535 26.61C121.535 24.915 121.292 23.565 120.821 22.575C120.351 21.585 119.607 21.105 118.59 21.105C117.573 21.105 116.754 21.6 116.222 22.605C115.691 23.61 115.433 24.945 115.433 26.61H121.52H121.535Z" fill="#1B92FF"/>
<path d="M140.842 11.685C139.142 11.685 137.761 11.16 136.713 10.095C135.666 9.02999 135.135 7.61999 135.135 5.83499C135.135 4.04999 135.666 2.59499 136.713 1.54499C137.761 0.509985 139.142 -0.0150146 140.842 -0.0150146C142.542 -0.0150146 143.923 0.509985 144.97 1.54499C146.018 2.57999 146.549 4.01999 146.549 5.83499C146.549 7.64999 146.018 9.02999 144.97 10.095C143.923 11.16 142.542 11.685 140.842 11.685ZM135.787 44.43V14.7H145.912V44.43H135.787Z" fill="#1B92FF"/>
<path d="M162.988 22.41V32.565C162.988 33.66 163.17 34.5 163.534 35.055C163.898 35.625 164.536 35.91 165.431 35.91C165.932 35.91 166.479 35.85 167.04 35.715C167.602 35.58 168.088 35.415 168.482 35.235L170 42.96C168.801 43.635 167.526 44.145 166.19 44.49C164.855 44.835 163.58 45 162.381 45C160.999 45 159.74 44.835 158.601 44.52C157.463 44.205 156.476 43.665 155.641 42.9C154.806 42.135 154.169 41.145 153.714 39.915C153.258 38.685 153.031 37.155 153.031 35.34V22.395H149.555V14.67H153.031V9.45001L162.988 7.57501V14.67H169.408V22.395H162.988V22.41Z" fill="#1B92FF"/>
</g>
<defs>
<clipPath id="clip0_50_5812">
<rect width="170" height="45" fill="white"/>
</clipPath>
</defs>
</svg>
