<svg width="92" height="24" viewBox="0 0 92 24" fill="none" xmlns="http://www.w3.org/2000/svg">
<g clip-path="url(#clip0_502_3251)">
<path d="M0 23.696V7.84001H5.27357V9.84001C5.78286 9.09601 6.37429 8.52001 7.05607 8.12801C7.72964 7.73601 8.53464 7.53601 9.45464 7.53601C11.3357 7.53601 12.5925 8.42401 13.225 10.2C13.7754 9.33601 14.4407 8.67201 15.2293 8.21601C16.0179 7.76001 16.8475 7.53601 17.7346 7.53601C19.09 7.53601 20.1332 8.00001 20.8725 8.92801C21.6118 9.85601 21.9732 11.208 21.9732 12.984V23.696H16.5846V14.704C16.5846 14.096 16.4696 13.632 16.2314 13.296C15.9932 12.96 15.6729 12.8 15.2621 12.8C14.9911 12.8 14.7036 12.88 14.4243 13.04C14.1368 13.2 13.8904 13.456 13.6768 13.8V23.696H8.32107V14.704C8.32107 14.096 8.20607 13.632 7.98429 13.296C7.75429 12.96 7.42571 12.8 6.99857 12.8C6.36607 12.8 5.84036 13.136 5.405 13.8V23.696H0Z" fill="#1B92FF"/>
<path d="M31.7402 24C30.582 24 29.5388 23.816 28.6188 23.44C27.6988 23.064 26.9102 22.528 26.2613 21.824C25.6123 21.12 25.1113 20.264 24.758 19.248C24.4048 18.24 24.2241 17.088 24.2241 15.8C24.2241 14.512 24.3966 13.352 24.758 12.32C25.1113 11.288 25.6205 10.424 26.2777 9.72001C26.9348 9.01601 27.7316 8.47201 28.6598 8.10401C29.588 7.72801 30.6477 7.54401 31.8223 7.54401C32.997 7.54401 34.0238 7.72001 34.9438 8.07201C35.8638 8.42401 36.6523 8.94401 37.3013 9.63201C37.9502 10.32 38.4513 11.152 38.8045 12.128C39.1577 13.104 39.3302 14.224 39.3302 15.472C39.3302 16.8 39.1577 18 38.8045 19.056C38.4513 20.112 37.942 21.016 37.2848 21.752C36.6277 22.488 35.8309 23.048 34.9027 23.432C33.9663 23.816 32.9148 24.008 31.7402 24.008V24ZM31.7648 19.432C33.0791 19.432 33.7363 18.2 33.7363 15.736C33.7363 13.272 33.0956 12.104 31.8223 12.104C30.5491 12.104 29.8509 13.336 29.8509 15.8C29.8509 18.264 30.4916 19.432 31.7648 19.432Z" fill="#1B92FF"/>
<path d="M44.6038 23.696L40.0366 7.84H45.5977L48.0373 18.312L50.5673 7.84H56.1038L51.5366 23.696H44.5873H44.6038Z" fill="#1B92FF"/>
<path d="M65.0326 24C62.3794 24 60.3505 23.32 58.9376 21.96C57.5248 20.6 56.8184 18.648 56.8184 16.104C56.8184 14.792 56.9909 13.608 57.3523 12.552C57.7055 11.496 58.2148 10.592 58.8801 9.84001C59.5455 9.09601 60.3505 8.52001 61.2951 8.12801C62.2398 7.73601 63.2994 7.53601 64.4741 7.53601C65.5337 7.53601 66.4784 7.71201 67.2998 8.06401C68.1212 8.41601 68.8194 8.89601 69.3862 9.50401C69.953 10.112 70.3884 10.832 70.6841 11.68C70.9798 12.528 71.1441 13.456 71.1851 14.464C71.2016 14.904 71.2098 15.376 71.2016 15.872C71.1934 16.368 71.1687 16.776 71.1276 17.096H62.4451C62.4451 18.088 62.7573 18.792 63.3734 19.232C63.9894 19.664 64.9176 19.88 66.158 19.88C66.6919 19.88 67.2587 19.832 67.8666 19.728C68.4744 19.624 69.1069 19.456 69.7476 19.216L70.6594 23.088C69.9694 23.352 69.1891 23.568 68.3019 23.736C67.4148 23.904 66.3305 23.992 65.0326 23.992V24ZM65.7719 14.192C65.7719 13.288 65.6405 12.568 65.3859 12.04C65.1312 11.512 64.7287 11.256 64.1784 11.256C63.628 11.256 63.1844 11.52 62.8969 12.056C62.6094 12.592 62.4698 13.304 62.4698 14.192H65.7637H65.7719Z" fill="#1B92FF"/>
<path d="M76.2204 6.23201C75.3004 6.23201 74.5529 5.952 73.9861 5.38401C73.4193 4.81601 73.1318 4.064 73.1318 3.112C73.1318 2.16 73.4193 1.384 73.9861 0.824004C74.5529 0.272004 75.3004 -0.00799561 76.2204 -0.00799561C77.1404 -0.00799561 77.8879 0.272004 78.4547 0.824004C79.0215 1.376 79.309 2.144 79.309 3.112C79.309 4.08 79.0215 4.81601 78.4547 5.38401C77.8879 5.952 77.1404 6.23201 76.2204 6.23201ZM73.4851 23.696V7.84001H78.964V23.696H73.4851Z" fill="#1B92FF"/>
<path d="M88.2052 11.952V17.368C88.2052 17.952 88.3038 18.4 88.5009 18.696C88.698 19 89.043 19.152 89.5277 19.152C89.7988 19.152 90.0945 19.12 90.3984 19.048C90.7023 18.976 90.9652 18.888 91.1788 18.792L92.0002 22.912C91.3513 23.272 90.6613 23.544 89.9384 23.728C89.2155 23.912 88.5256 24 87.8766 24C87.1291 24 86.4473 23.912 85.8313 23.744C85.2152 23.576 84.6813 23.288 84.2295 22.88C83.7777 22.472 83.4327 21.944 83.1863 21.288C82.9398 20.632 82.8166 19.816 82.8166 18.848V11.944H80.9355V7.82401H82.8166V5.04001L88.2052 4.04001V7.82401H91.6798V11.944H88.2052V11.952Z" fill="#1B92FF"/>
</g>
<defs>
<clipPath id="clip0_502_3251">
<rect width="92" height="24" fill="white"/>
</clipPath>
</defs>
</svg>
