<svg width="24" height="24" viewBox="0 0 24 24" fill="none" xmlns="http://www.w3.org/2000/svg">
<g clip-path="url(#clip0_2274_23989)">
<mask id="mask0_2274_23989" style="mask-type:luminance" maskUnits="userSpaceOnUse" x="0" y="0" width="24" height="24">
<path d="M24 0H0V24H24V0Z" fill="white"/>
</mask>
<g mask="url(#mask0_2274_23989)">
<path d="M12 24C18.6274 24 24 18.6274 24 12C24 5.37258 18.6274 0 12 0C5.37258 0 0 5.37258 0 12C0 18.6274 5.37258 24 12 24Z" fill="#E9F4FF"/>
<path d="M11.9999 11.3333C13.4727 11.3333 14.6666 10.1394 14.6666 8.66667C14.6666 7.19391 13.4727 6 11.9999 6C10.5272 6 9.33325 7.19391 9.33325 8.66667C9.33325 10.1394 10.5272 11.3333 11.9999 11.3333Z" fill="#242945"/>
<path d="M6 16.6667C6 14.4575 7.79087 12.6667 10 12.6667H14C16.2091 12.6667 18 14.4575 18 16.6667C18 17.4031 17.4031 18 16.6667 18H7.33333C6.59695 18 6 17.4031 6 16.6667Z" fill="#242945"/>
</g>
</g>
<defs>
<clipPath id="clip0_2274_23989">
<rect width="24" height="24" fill="white"/>
</clipPath>
</defs>
</svg>
