<svg width="40" height="35" viewBox="0 0 40 35" fill="none" xmlns="http://www.w3.org/2000/svg">
<path d="M40.0001 14.4689V28.6993C40.0001 30.0622 38.947 31.1677 37.6475 31.1677H35.5781V34.2345C35.5781 34.8726 34.8779 35.2294 34.3996 34.8352L29.9503 31.1678H15.7322C14.4327 31.1678 13.3796 30.0623 13.3796 28.6994V14.4689C13.3796 13.1054 14.4327 12.0005 15.7322 12.0005H37.6475C38.947 12.0005 40.0001 13.1054 40.0001 14.4689Z" fill="#36A4FF"/>
<path d="M34.3411 12.0005V20.8521C34.3411 23.1958 32.5237 25.1027 30.2898 25.1027H13.3796V14.4689C13.3796 13.1054 14.4327 12.0005 15.7322 12.0005H34.3411Z" fill="#3280D6"/>
<path d="M33.226 3.08074V20.8424C33.226 22.5439 31.9115 23.9232 30.2898 23.9232H12.5434L6.98971 28.5013C6.39322 28.9932 5.51908 28.5476 5.51908 27.7515V23.9232H2.93624C1.31454 23.9232 0 22.544 0 20.8424V3.08074C0 1.37924 1.31454 0 2.93624 0H30.2897C31.9115 0 33.226 1.37924 33.226 3.08074Z" fill="#60E26C"/>
<path d="M10.0644 14.1376C11.2096 14.1376 12.138 13.1636 12.138 11.962C12.138 10.7604 11.2096 9.78627 10.0644 9.78627C8.91912 9.78627 7.99072 10.7604 7.99072 11.962C7.99072 13.1636 8.91912 14.1376 10.0644 14.1376Z" fill="white"/>
<path d="M16.6134 14.1376C17.7587 14.1376 18.6871 13.1636 18.6871 11.962C18.6871 10.7604 17.7587 9.78627 16.6134 9.78627C15.4682 9.78627 14.5398 10.7604 14.5398 11.962C14.5398 13.1636 15.4682 14.1376 16.6134 14.1376Z" fill="white"/>
<path d="M23.1613 14.1376C24.3065 14.1376 25.2349 13.1636 25.2349 11.962C25.2349 10.7604 24.3065 9.78627 23.1613 9.78627C22.016 9.78627 21.0876 10.7604 21.0876 11.962C21.0876 13.1636 22.016 14.1376 23.1613 14.1376Z" fill="white"/>
</svg>
