<svg width="40" height="40" viewBox="0 0 40 40" fill="none" xmlns="http://www.w3.org/2000/svg">
<circle cx="20" cy="20" r="20" fill="#1B92FF"/>
<path d="M11.1807 27.0901V13.3535H15.5007V15.0861C15.9179 14.4416 16.4023 13.9426 16.9609 13.603C17.5126 13.2634 18.1721 13.0901 18.9257 13.0901C20.4666 13.0901 21.4962 13.8594 22.0143 15.398C22.4652 14.6495 23.0102 14.0742 23.6562 13.6792C24.3022 13.2841 24.9818 13.0901 25.7085 13.0901C26.8188 13.0901 27.6734 13.4921 28.279 14.296C28.8846 15.1 29.1807 16.2713 29.1807 17.8099V27.0901H24.7665V19.3C24.7665 18.7733 24.6723 18.3713 24.4771 18.0802C24.282 17.7891 24.0195 17.6505 23.6831 17.6505C23.461 17.6505 23.2255 17.7198 22.9967 17.8584C22.7612 17.997 22.5594 18.2188 22.3844 18.5168V27.0901H17.9971V19.3C17.9971 18.7733 17.9029 18.3713 17.7212 18.0802C17.5328 17.7891 17.2637 17.6505 16.9137 17.6505C16.3956 17.6505 15.965 17.9416 15.6083 18.5168V27.0901H11.1807Z" fill="white"/>
</svg>
