<svg width="40" height="40" viewBox="0 0 40 40" fill="none" xmlns="http://www.w3.org/2000/svg">
<circle cx="20" cy="20" r="20" fill="#1B92FF"/>
<path d="M20.0017 13.3331V8.88867H15.5573M23.3351 18.8887V21.1109M8.89062 19.9998H11.1128M28.8906 19.9998H31.1128M16.6684 18.8887V21.1109M28.8906 24.4442C28.8906 25.0336 28.6565 25.5988 28.2397 26.0156C27.823 26.4323 27.2578 26.6665 26.6684 26.6665H16.4773C15.888 26.6666 15.3228 26.9008 14.9062 27.3176L12.4595 29.7642C12.3492 29.8745 12.2086 29.9497 12.0556 29.9801C11.9026 30.0105 11.744 29.9949 11.5999 29.9352C11.4557 29.8755 11.3325 29.7744 11.2458 29.6447C11.1591 29.515 11.1129 29.3625 11.1128 29.2064V15.5553C11.1128 14.966 11.347 14.4007 11.7637 13.984C12.1805 13.5672 12.7457 13.3331 13.3351 13.3331H26.6684C27.2578 13.3331 27.823 13.5672 28.2397 13.984C28.6565 14.4007 28.8906 14.966 28.8906 15.5553V24.4442Z" stroke="white" stroke-width="2" stroke-linecap="round" stroke-linejoin="round"/>
</svg>
