<svg width="18" height="18" viewBox="0 0 18 18" fill="none" xmlns="http://www.w3.org/2000/svg">
<path d="M8.64363 1.72125C8.6765 1.65484 8.72728 1.59895 8.79022 1.55987C8.85317 1.52079 8.92579 1.50008 8.99988 1.50008C9.07398 1.50008 9.1466 1.52079 9.20955 1.55987C9.27249 1.59895 9.32327 1.65484 9.35614 1.72125L11.0886 5.2305C11.2028 5.46147 11.3712 5.6613 11.5796 5.81284C11.788 5.96437 12.03 6.06308 12.2849 6.1005L16.1594 6.6675C16.2328 6.67813 16.3018 6.7091 16.3585 6.7569C16.4152 6.80469 16.4575 6.86741 16.4804 6.93795C16.5033 7.00849 16.5061 7.08405 16.4883 7.15607C16.4706 7.2281 16.433 7.29371 16.3799 7.3455L13.5779 10.074C13.3931 10.2541 13.2548 10.4764 13.175 10.7217C13.0952 10.9671 13.0762 11.2282 13.1196 11.4825L13.7811 15.3375C13.7941 15.4109 13.7862 15.4864 13.7583 15.5555C13.7303 15.6246 13.6836 15.6845 13.6233 15.7282C13.563 15.772 13.4916 15.798 13.4173 15.8032C13.3429 15.8083 13.2687 15.7925 13.2029 15.7575L9.73938 13.9365C9.51117 13.8167 9.25727 13.7541 8.99951 13.7541C8.74175 13.7541 8.48785 13.8167 8.25963 13.9365L4.79688 15.7575C4.73113 15.7923 4.65693 15.808 4.58272 15.8027C4.50851 15.7974 4.43727 15.7714 4.37711 15.7277C4.31694 15.6839 4.27026 15.6241 4.24238 15.5552C4.21449 15.4862 4.20653 15.4108 4.21938 15.3375L4.88013 11.4832C4.92378 11.2288 4.90487 10.9675 4.82504 10.722C4.7452 10.4765 4.60684 10.2541 4.42188 10.074L1.61988 7.34625C1.56633 7.29452 1.52838 7.22879 1.51036 7.15655C1.49233 7.08431 1.49496 7.00846 1.51794 6.93764C1.54093 6.86682 1.58334 6.80388 1.64034 6.75598C1.69735 6.70809 1.76666 6.67717 1.84038 6.66675L5.71413 6.1005C5.96933 6.06337 6.21168 5.96479 6.42032 5.81324C6.62897 5.66168 6.79766 5.4617 6.91188 5.2305L8.64363 1.72125Z" fill="#FFC149"/>
</svg>
