<svg width="170" height="45" viewBox="0 0 170 45" fill="none" xmlns="http://www.w3.org/2000/svg">
<g clip-path="url(#clip0_112_4099)">
<path d="M0 44.4309V14.7009H9.74464V18.4509C10.6857 17.0559 11.7786 15.9759 13.0384 15.2409C14.283 14.5059 15.7705 14.1309 17.4705 14.1309C20.9464 14.1309 23.2687 15.7959 24.4375 19.1259C25.4545 17.5059 26.6839 16.2609 28.1411 15.4059C29.5982 14.5509 31.1312 14.1309 32.7705 14.1309C35.275 14.1309 37.2027 15.0009 38.5687 16.7409C39.9348 18.4809 40.6027 21.0159 40.6027 24.3459V44.4309H30.6455V27.5709C30.6455 26.4309 30.433 25.5609 29.9929 24.9309C29.5527 24.3009 28.9607 24.0009 28.2018 24.0009C27.7009 24.0009 27.1696 24.1509 26.6536 24.4509C26.1223 24.7509 25.667 25.2309 25.2723 25.8759V44.4309H15.3759V27.5709C15.3759 26.4309 15.1634 25.5609 14.7536 24.9309C14.3286 24.3009 13.7214 24.0009 12.9321 24.0009C11.7634 24.0009 10.792 24.6309 9.9875 25.8759V44.4309H0Z" fill="#1B92FF"/>
<path d="M58.6501 44.9995C56.5099 44.9995 54.5823 44.6545 52.8823 43.9495C51.1823 43.2445 49.7251 42.2395 48.526 40.9195C47.3269 39.5995 46.401 37.9945 45.7483 36.0895C45.0956 34.1995 44.7617 32.0395 44.7617 29.6245C44.7617 27.2095 45.0805 25.0345 45.7483 23.0995C46.401 21.1645 47.3421 19.5445 48.5564 18.2245C49.7706 16.9045 51.243 15.8845 52.9581 15.1945C54.6733 14.4895 56.6314 14.1445 58.8019 14.1445C60.9724 14.1445 62.8698 14.4745 64.5698 15.1345C66.2698 15.7945 67.7269 16.7695 68.926 18.0595C70.1251 19.3495 71.051 20.9095 71.7037 22.7395C72.3564 24.5695 72.6751 26.6695 72.6751 29.0095C72.6751 31.4995 72.3564 33.7495 71.7037 35.7295C71.051 37.7095 70.1099 39.4045 68.8956 40.7845C67.6814 42.1645 66.209 43.2145 64.4939 43.9345C62.7635 44.6545 60.8206 45.0145 58.6501 45.0145V44.9995ZM58.6956 36.4345C61.1242 36.4345 62.3385 34.1245 62.3385 29.5045C62.3385 24.8845 61.1546 22.6945 58.8019 22.6945C56.4492 22.6945 55.159 25.0045 55.159 29.6245C55.159 34.2445 56.343 36.4345 58.6956 36.4345Z" fill="#1B92FF"/>
<path d="M82.4198 44.4292L73.9805 14.6992H84.2564L88.7644 34.3342L93.4394 14.6992H103.67L95.2305 44.4292H82.3894H82.4198Z" fill="#1B92FF"/>
<path d="M120.169 45.0009C115.266 45.0009 111.517 43.7259 108.906 41.1759C106.296 38.6259 104.99 34.9659 104.99 30.1959C104.99 27.7359 105.309 25.5159 105.977 23.5359C106.63 21.5559 107.571 19.8609 108.8 18.4509C110.03 17.0559 111.517 15.9759 113.263 15.2409C115.008 14.5059 116.966 14.1309 119.137 14.1309C121.095 14.1309 122.84 14.4609 124.358 15.1209C125.876 15.7809 127.166 16.6809 128.213 17.8209C129.261 18.9609 130.065 20.3109 130.612 21.9009C131.158 23.4909 131.462 25.2309 131.538 27.1209C131.568 27.9459 131.583 28.8309 131.568 29.7609C131.553 30.6909 131.507 31.4559 131.431 32.0559H115.388C115.388 33.9159 115.964 35.2359 117.103 36.0609C118.241 36.8709 119.956 37.2759 122.248 37.2759C123.235 37.2759 124.282 37.1859 125.405 36.9909C126.529 36.7959 127.697 36.4809 128.881 36.0309L130.566 43.2909C129.291 43.7859 127.849 44.1909 126.21 44.5059C124.571 44.8209 122.567 44.9859 120.169 44.9859V45.0009ZM121.535 26.6109C121.535 24.9159 121.292 23.5659 120.821 22.5759C120.351 21.5859 119.607 21.1059 118.59 21.1059C117.573 21.1059 116.754 21.6009 116.222 22.6059C115.691 23.6109 115.433 24.9459 115.433 26.6109H121.52H121.535Z" fill="#1B92FF"/>
<path d="M140.842 11.6844C139.142 11.6844 137.761 11.1594 136.713 10.0944C135.666 9.02938 135.135 7.61938 135.135 5.83438C135.135 4.04938 135.666 2.59438 136.713 1.54438C137.761 0.509375 139.142 -0.015625 140.842 -0.015625C142.542 -0.015625 143.923 0.509375 144.97 1.54438C146.018 2.57938 146.549 4.01938 146.549 5.83438C146.549 7.64938 146.018 9.02938 144.97 10.0944C143.923 11.1594 142.542 11.6844 140.842 11.6844ZM135.787 44.4294V14.6994H145.912V44.4294H135.787Z" fill="#1B92FF"/>
<path d="M162.988 22.4092V32.5642C162.988 33.6592 163.17 34.4992 163.534 35.0542C163.898 35.6242 164.536 35.9092 165.431 35.9092C165.932 35.9092 166.479 35.8492 167.04 35.7142C167.602 35.5792 168.088 35.4142 168.482 35.2342L170 42.9592C168.801 43.6342 167.526 44.1442 166.19 44.4892C164.855 44.8342 163.58 44.9992 162.381 44.9992C160.999 44.9992 159.74 44.8342 158.601 44.5192C157.463 44.2042 156.476 43.6642 155.641 42.8992C154.806 42.1342 154.169 41.1442 153.714 39.9142C153.258 38.6842 153.031 37.1542 153.031 35.3392V22.3942H149.555V14.6692H153.031V9.44922L162.988 7.57422V14.6692H169.408V22.3942H162.988V22.4092Z" fill="#1B92FF"/>
</g>
<defs>
<clipPath id="clip0_112_4099">
<rect width="170" height="45" fill="white"/>
</clipPath>
</defs>
</svg>
